<?xml version="1.0" encoding="UTF-8" standalone="no"?>
<!-- Created with Inkscape (http://www.inkscape.org/) -->

<svg
   width="210mm"
   height="210mm"
   viewBox="0 0 210 210"
   version="1.1"
   id="svg5"
   xml:space="preserve"
   inkscape:version="1.2.1 (9c6d41e410, 2022-07-14)"
   sodipodi:docname="bot-image.svg"
   inkscape:export-filename="Logo Fichagram.png"
   inkscape:export-xdpi="96"
   inkscape:export-ydpi="96"
   xmlns:inkscape="http://www.inkscape.org/namespaces/inkscape"
   xmlns:sodipodi="http://sodipodi.sourceforge.net/DTD/sodipodi-0.dtd"
   xmlns="http://www.w3.org/2000/svg"
   xmlns:svg="http://www.w3.org/2000/svg"><sodipodi:namedview
     id="namedview7"
     pagecolor="#ffffff"
     bordercolor="#000000"
     borderopacity="0.25"
     inkscape:showpageshadow="2"
     inkscape:pageopacity="0.0"
     inkscape:pagecheckerboard="0"
     inkscape:deskcolor="#d1d1d1"
     inkscape:document-units="mm"
     showgrid="false"
     inkscape:zoom="1.0544998"
     inkscape:cx="193.93081"
     inkscape:cy="417.25946"
     inkscape:window-width="1920"
     inkscape:window-height="1017"
     inkscape:window-x="-8"
     inkscape:window-y="-8"
     inkscape:window-maximized="1"
     inkscape:current-layer="layer1" /><defs
     id="defs2" /><g
     inkscape:label="Capa 1"
     inkscape:groupmode="layer"
     id="layer1"><path
       style="fill:#ffffff;fill-opacity:1;stroke-width:0.115;stroke-linecap:round;stroke-linejoin:round;stroke-miterlimit:0;paint-order:markers fill stroke"
       d="m 101.11627,37.636328 -23.585433,2.509089 -10.287264,5.269087 -11.039988,11.792714 -3.763635,13.54908 1.003636,16.559984 5.519994,7.025447 18.818164,4.265451 46.919956,-2.007272 21.82907,-1.254543 11.79272,-9.283628 -0.25091,-21.82907 -8.02909,-11.541807 -11.79271,-11.541807 -17.81453,-3.261816 z"
       id="path11313" /><path
       style="fill:#029ae3;fill-opacity:1;stroke-width:0.115;stroke-linecap:round;stroke-linejoin:round;stroke-miterlimit:0;paint-order:markers fill stroke"
       d="m 79.661289,100.41935 -15.612904,3.90323 -11.887096,8.87097 -7.451612,12.24193 -2.66129,15.08065 6.032257,17.74193 14.193549,20.40323 c 0,0 14.903224,9.58064 19.33871,12.24193 4.435483,2.66129 18.806447,6.20968 18.806447,6.20968 l 22.70968,-1.41935 c 0,0 3.01613,0.35483 10.1129,-4.61291 7.09678,-4.96774 14.54839,-13.30645 14.54839,-13.30645 l 13.83871,-18.98387 6.20968,-19.33871 -2.12904,-12.77419 -9.93548,-17.20968 -21.46774,-9.04839 z"
       id="path8292" /><path
       style="fill:#13476f;stroke-width:0.205078;fill-opacity:1"
       d="m 100.89276,199.53475 c -28.090062,-2.92426 -52.596434,-24.9584 -59.291232,-53.30988 -5.193557,-21.99393 8.35501,-43.42376 29.518477,-46.6895 0.814876,-0.12574 0.330691,-0.18573 -2.358398,-0.2922 C 61.819747,98.96832 56.626755,96.16841 53.186344,90.84542 52.343405,89.54123 52.343405,89.54123 50.644837,89.19735 44.486345,87.95053 42.308746,84.65853 42.149652,76.35471 41.955252,66.20807 44.311516,62.08413 51.009655,60.8479 52.39771,60.59172 52.39771,60.59172 53.358,58.44492 60.393607,42.716289 72.775755,35.482689 92.663713,35.482689 c 6.859613,0 6.859613,0 6.859613,-3.750517 0,-3.750518 0,-3.750518 -0.933374,-4.530722 -7.294281,-6.097264 -1.683924,-18.2688697 7.803488,-16.929581 8.15009,1.150506 11.26833,11.920765 4.95025,17.097959 -0.95123,0.779456 -0.95123,0.779456 -0.95123,4.446159 0,3.666702 0,3.666702 6.96215,3.666702 20.11932,0 32.27876,7.131026 39.47843,23.152521 0.87822,1.95432 0.87822,1.95432 2.18708,2.19833 7.31901,1.3645 10.52276,8.56089 8.80876,19.78659 -0.68201,4.46675 -4.06256,7.86977 -8.57023,8.62719 -1.5289,0.25691 -1.5289,0.25691 -2.46252,1.70073 -3.41383,5.27938 -8.54543,8.01784 -15.53941,8.29253 -2.44549,0.096 -3.24143,0.18204 -2.66602,0.28804 23.86571,4.39648 36.29379,26.46452 28.69263,50.94833 -9.8458,31.71393 -37.40156,52.07563 -66.39057,49.0578 z m 12.94574,-5.41253 c 24.2742,-3.58677 44.92745,-24.28159 50.26755,-50.36874 3.93354,-19.21591 -9.58583,-38.1952 -28.78029,-40.40347 -4.20996,-0.48435 -60.433675,-0.14925 -62.737483,0.37392 -21.674902,4.92209 -32.452106,25.83528 -24.491261,47.52536 9.031385,24.60686 29.374983,40.78197 54.399934,43.25317 1.73813,0.17164 9.32891,-0.0828 11.34155,-0.38024 z M 144.74305,93.66927 c 8.64441,-2.51944 12.18134,-11.91765 9.66507,-25.6817 C 151.94124,54.49368 141.34409,43.621365 128.23426,41.134079 122.37303,40.022047 87.265291,40.086978 81.704799,41.220139 67.577549,44.099089 57.110893,55.66846 55.4403,70.25174 c -1.660118,14.49183 2.308843,22.56897 11.631385,23.67079 3.16802,0.37442 76.336305,0.13585 77.671365,-0.25326 z M 79.596061,85.92716 C 62.788063,83.09081 61.440535,59.65734 77.790216,54.52359 c 2.120484,-0.66583 51.741904,-0.77206 54.135444,-0.1159 16.42523,4.50276 15.67616,28.23981 -0.99216,31.44034 -1.6801,0.32261 -49.458235,0.39624 -51.337439,0.0791 z m 8.341844,-10.93644 c 4.285495,-1.99565 4.1711,-8.06488 -0.188305,-9.99047 -4.549537,-2.00958 -9.335113,2.82562 -7.219111,7.29396 1.314536,2.7759 4.638518,3.98592 7.407416,2.69651 z m 39.331085,-0.19987 c 4.90267,-2.87316 2.94875,-10.16991 -2.72614,-10.18056 -5.96278,-0.0112 -7.67585,7.92377 -2.25586,10.4491 1.33812,0.62347 3.67483,0.49751 4.982,-0.26854 z M 107.02012,24.021667 c 2.27216,-1.03205 3.28613,-3.841696 2.19171,-6.073157 -2.13916,-4.361646 -8.73149,-2.890243 -8.72871,1.948242 0.002,3.303624 3.49391,5.507125 6.537,4.124915 z"
       id="path7552" /><path
       id="path2061-3"
       style="fill:#ffffff;fill-opacity:1;stroke-width:0.544368"
       d="m 131.60858,133.595 c -0.6143,-0.0775 -1.42366,0.48138 -2.67735,1.51143 -2.52509,2.07472 -2.52469,2.07536 -1.55324,5.69749 8.12024,30.27724 -33.816558,43.03739 -45.900148,13.96603 -0.149302,-0.36251 -6.309121,1.92577 -6.35885,2.36211 -0.535819,4.70045 10.269606,16.66214 17.961563,19.88298 22.713655,9.51079 46.975855,-13.52012 40.702035,-38.63614 -0.77292,-3.09437 -1.24472,-4.53643 -2.05286,-4.76023 -0.0391,-0.0112 -0.0802,-0.0185 -0.12107,-0.0238 z m -39.002026,-2.6908 c 0.0021,0.003 0.0042,0.006 0.0063,0.0105 -3.06e-4,-0.003 5.3e-5,-0.006 -0.001,-0.008 -0.0021,-6.3e-4 -0.0042,-0.002 -0.0074,-0.002 z" /><path
       id="path2061-3-9"
       style="fill:#ffffff;fill-opacity:1;stroke-width:0.530068"
       d="m 132.32995,113.2827 c -2.03411,7.5e-4 -5.89305,3.92652 -16.60509,15.3309 -16.784827,17.86963 -15.38346,17.21468 -22.081136,10.32116 -4.756026,-4.89511 -6.098054,-5.34034 -7.968971,-2.64143 -1.28141,1.84855 -0.852199,2.77152 3.577126,7.7001 2.981206,3.31722 3.317837,3.93128 3.664378,6.66879 0.445935,3.52309 1.522965,5.5055 3.795228,6.99082 4.382805,2.86498 10.073765,-1.08451 10.079575,-6.99353 0.002,-2.27514 0.17478,-2.49328 13.49245,-17.03479 14.39076,-15.7133 15.01974,-16.5237 14.1609,-18.24408 -0.64277,-1.28761 -1.18984,-2.09828 -2.11446,-2.09794 z m -8.69129,30.67268 c -0.0416,0.0759 -0.0803,0.15324 -0.12063,0.22962 l 0.12311,-0.19294 c -9.5e-4,-0.0118 0.002,-0.0469 -0.002,-0.0367 z m -23.815801,4.87524 c 0.838151,0.0515 1.641551,0.72766 1.764171,1.87916 0.0961,0.90138 -0.12513,1.78616 -0.51193,2.04901 -1.977488,1.34397 -4.062842,-0.65532 -2.968951,-2.8466 0.391435,-0.78418 1.064803,-1.12157 1.71671,-1.08157 z" /></g></svg>
