<?xml version="1.0" encoding="UTF-8" standalone="no"?>
<!-- Created with Inkscape (http://www.inkscape.org/) -->

<svg
   width="210mm"
   height="210mm"
   viewBox="0 0 210 210"
   version="1.1"
   id="svg5"
   xml:space="preserve"
   inkscape:version="1.2.1 (9c6d41e410, 2022-07-14)"
   sodipodi:docname="Logo Fichagram.svg"
   xmlns:inkscape="http://www.inkscape.org/namespaces/inkscape"
   xmlns:sodipodi="http://sodipodi.sourceforge.net/DTD/sodipodi-0.dtd"
   xmlns="http://www.w3.org/2000/svg"
   xmlns:svg="http://www.w3.org/2000/svg"><sodipodi:namedview
     id="namedview7"
     pagecolor="#ffffff"
     bordercolor="#000000"
     borderopacity="0.25"
     inkscape:showpageshadow="2"
     inkscape:pageopacity="0.0"
     inkscape:pagecheckerboard="0"
     inkscape:deskcolor="#d1d1d1"
     inkscape:document-units="mm"
     showgrid="false"
     inkscape:zoom="0.37282197"
     inkscape:cx="173.00483"
     inkscape:cy="528.40234"
     inkscape:window-width="1920"
     inkscape:window-height="1017"
     inkscape:window-x="-8"
     inkscape:window-y="-8"
     inkscape:window-maximized="1"
     inkscape:current-layer="layer1" /><defs
     id="defs2" /><g
     inkscape:label="Capa 1"
     inkscape:groupmode="layer"
     id="layer1"><rect
       style="fill:#000000;fill-opacity:1;stroke-width:0.0967006;stroke-linecap:round;stroke-linejoin:round;stroke-miterlimit:0;paint-order:markers fill stroke"
       id="rect3639"
       width="210"
       height="210"
       x="0"
       y="0" /><path
       id="path306-3"
       style="fill:#0694de;fill-opacity:1;stroke-width:0.266168"
       d="m 159.16538,32.750536 c -0.9351,-0.05307 -1.7727,0.369657 -9.96007,4.369434 -3.51341,1.716408 -7.82562,3.811585 -9.58233,4.6561 -3.96404,1.905642 -11.22342,5.426076 -17.70023,8.584662 -2.70826,1.320756 -6.71996,3.269095 -8.91583,4.32908 -2.19589,1.059966 -6.8679,3.333983 -10.38131,5.053515 -7.468761,3.655354 -15.085096,7.356831 -19.030096,9.247012 -1.53712,0.73649 -6.79415,3.298616 -11.68114,5.694116 -4.88701,2.39552 -8.914809,4.356 -8.952059,4.356 -0.455252,0 -14.77168,7.26384 -15.145022,7.68427 -0.828894,0.93339 -0.881946,3.14496 -0.102538,4.29181 0.660388,0.97158 1.215955,1.20277 14.587212,6.087403 18.127187,6.622002 15.977217,5.601892 16.771907,7.957502 4.7343,14.03327 16.812155,23.04614 31.396376,23.42747 l 4.64989,0.12117 2.80257,2.14538 c 1.54147,1.18017 2.92213,2.28519 3.06853,2.45482 0.14639,0.16963 1.04482,0.89653 1.99636,1.61551 0.95156,0.71901 1.79079,1.37748 1.86388,1.46339 0.0733,0.0859 0.68424,0.56534 1.35887,1.06493 1.17548,0.87051 3.04768,2.35225 6.97742,5.52337 1.13259,0.91395 2.28489,1.5917 3.0613,1.80076 3.92824,1.05776 4.84589,-0.14079 6.56553,-8.57329 0.65365,-3.20529 1.79637,-8.76206 2.53867,-12.34866 1.49198,-7.20923 2.00914,-9.73086 3.16788,-15.43789 0.43098,-2.1227 1.51648,-7.39261 2.4124,-11.711172 0.89595,-4.318543 1.72716,-8.331303 1.84733,-8.916873 2.75926,-13.45462 6.67599,-32.631747 7.4742,-36.597879 0.42718,-2.122674 1.20274,-5.895206 1.72416,-8.383872 1.57664,-7.525237 1.09666,-9.523083 -2.38549,-9.915571 -0.15921,-0.01802 -0.29487,-0.03485 -0.42845,-0.04246 z" /><path
       id="path2061"
       style="fill:#ffffff;fill-opacity:1;stroke-width:0.374117"
       d="m 176.15538,160.09663 c -1.216,0.0539 -2.7835,2.14852 -4.515,6.37315 -1.1807,2.8807 -2.3117,5.53038 -2.5129,5.88796 -0.2915,0.51811 -0.8605,-0.54556 -2.8044,-5.23764 -2.4392,-5.88778 -2.4396,-5.88807 -4.7137,-5.9983 -1.9894,-0.0964 -4.0398,14.62696 -2.4537,17.61931 1.5399,2.90523 3.6385,-0.35959 3.5592,-5.53722 -0.095,-6.2341 -0.1326,-6.25746 3.70689,2.34262 2.2,4.92808 2.84651,4.66622 5.9457,-2.4062 2.405,-5.48826 2.4049,-5.48826 2.5084,0 0.1035,5.48826 0.1035,5.48828 1.9641,5.48828 1.8606,0 1.8611,2.7e-4 1.8611,-8.80857 0,-6.48793 -0.9823,-9.7926 -2.54569,-9.72339 z M 60.139565,160.9289 c -10.56293,0.0424 -12.42215,14.80888 -2.28124,18.1191 3.28392,1.07195 10.138919,-2.34703 9.6569,-4.81675 -0.15949,-0.81719 -3.35227,-1.96048 -3.58115,-1.28238 -1.4838,4.39624 -8.29239,2.82824 -8.94812,-2.06057 -0.75483,-5.62771 6.07171,-8.85507 8.72015,-4.12259 0.38006,0.67914 4.25631,-0.0635 4.25631,-0.81546 0,-2.12105 -4.53906,-5.0345 -7.82285,-5.02135 z m 34.275559,0.01 c -0.86314,-0.0431 -1.62314,0.31036 -1.86766,1.13184 -0.10789,0.36235 -1.45224,3.94125 -2.987089,7.95364 -1.53486,4.01242 -2.90884,7.67409 -3.05359,8.13705 -0.24579,0.78617 -0.153801,0.84176 1.399289,0.84176 1.84304,0 2.19803,-0.29002 2.85776,-2.33822 0.74903,-2.32545 7.44041,-2.17467 8.30072,0.18706 0.56118,1.54052 3.458426,2.88258 4.333816,2.00722 0.2265,-0.22651 -4.446396,-12.5955 -6.023176,-15.94309 -0.57053,-1.21123 -1.8503,-1.92175 -2.96007,-1.97726 z m 18.079656,0.0533 c -1.2265,-0.0482 -2.4139,0.10944 -3.41021,0.52682 -7.862,3.29405 -6.48809,15.88797 1.90131,17.42787 5.4595,1.0021 10.1012,-2.77576 10.1012,-8.22108 0,-1.44942 0,-1.4497 -4.3024,-1.4497 -4.3023,0 -4.3023,0 -4.3023,1.49647 0,1.49647 0,1.49647 2.4318,1.49647 2.7868,0 3.288,0.76874 1.446,2.21767 -2.3501,1.84858 -7.09331,0.62899 -8.24151,-2.11903 -2.2553,-5.39763 4.49851,-10.90148 8.06611,-6.57335 1.4108,1.71146 4.4261,1.51914 4.2505,-0.27109 -0.2343,-2.38917 -4.2609,-4.3863 -7.9405,-4.53105 z m -75.563625,0.0533 c -5.63225,0 -5.63222,3.9e-4 -5.63222,8.7647 0,8.03238 0.0547,8.77817 0.6547,8.93498 2.86561,0.74886 3.08647,0.51028 3.08647,-3.34002 0,-3.59835 0,-3.59834 3.18,-3.33344 3.17999,0.26489 3.17999,0.26465 3.17999,-1.44532 0,-2.02847 -0.52456,-2.2855 -4.12917,-2.02476 -2.23107,0.16138 -2.23082,0.16084 -2.23082,-1.81359 0,-1.97444 0,-1.97396 3.64764,-2.08104 7.26873,-0.21337 5.61451,-3.66151 -1.75659,-3.66151 z m 10.08728,0 c -1.87736,0 -1.87717,-3e-5 -1.87717,8.99927 0,8.99928 0,8.9993 1.77706,8.88527 2.89212,-0.18557 2.99119,-17.88454 0.10011,-17.88454 z m 35.534549,0 c -1.870589,0 -1.870589,0 -1.870589,3.55411 0,5.54777 -7.0155,5.63906 -7.18787,0.0935 -0.10758,-3.46059 -0.10741,-3.46055 -1.88447,-3.57457 -1.77705,-0.11397 -1.77706,-0.11397 -1.77706,8.88528 0,8.9993 1e-5,8.99927 1.870589,8.99927 1.87059,0 1.87059,0 1.87059,-3.74117 0,-3.74117 0,-3.74118 3.55411,-3.74118 3.55411,0 3.55411,1e-5 3.55411,3.74118 0,3.74117 0,3.74117 1.87059,3.74117 1.87059,0 1.87059,-2e-5 1.87059,-8.97881 0,-8.9788 0,-8.97882 -1.87059,-8.97882 z m 44.652996,0.0438 c -3.1266,-0.0113 -3.126,0.97681 -3.126,8.88089 0,9.03324 0,9.03288 1.8706,9.03288 1.8706,0 1.8706,0 1.8706,-3.17999 0,-3.18 0,-3.18 1.1202,-3.18 0.9953,0 1.3483,0.35424 3.1712,3.18 1.9806,3.07017 2.1002,3.17967 3.4628,3.17415 2.6097,-0.01 2.6651,-0.36328 0.5684,-3.60672 -1.8967,-2.93415 -1.8966,-2.93445 -0.8001,-3.80914 5.5235,-4.40616 1.9432,-10.07431 -6.5967,-10.44312 -0.5834,-0.0252 -1.0944,-0.0474 -1.541,-0.0489 z m 20.8278,0.34196 c -2.2533,0.21108 -4.5693,5.47053 -8.045,16.42169 -0.6064,1.9105 3.3853,1.03255 4.1262,-0.90752 0.9331,-2.44309 7.5261,-2.66411 8.3702,-0.28059 0.2732,0.77162 0.6784,1.63077 0.9009,1.90932 0.3704,0.46354 2.9935,0.42766 3.4686,-0.0475 0.091,-0.0909 -1.3321,-4.01923 -3.1624,-8.72964 -2.1916,-5.64007 -3.906,-8.52994 -5.6585,-8.36577 z m -17.9511,3.35536 c 2.2576,0 4.0985,1.00818 4.0985,2.2447 0,0.8328 -1.8427,2.2447 -2.9294,2.2447 -0.6009,0 -1.6185,0.1052 -2.2615,0.23383 -1.1691,0.23382 -1.1691,0.23382 -1.1691,-2.2447 0,-2.47853 -2e-4,-2.47853 2.2615,-2.47853 z m 18.2682,1.35106 c 0.013,0.001 0.023,0.008 0.032,0.019 0.2714,0.30775 2.2593,5.19568 2.2593,5.55549 0,0.10068 -1.0283,0.18268 -2.28491,0.18268 -1.6703,0 -2.23839,-0.12571 -2.1124,-0.46765 0.095,-0.25721 0.5526,-1.61862 1.01711,-3.02582 0.4355,-1.31925 0.90619,-2.28979 1.0887,-2.2637 z m -53.557245,0.15345 c 0.29082,0.017 0.60097,0.75819 1.14865,2.23667 0.41922,1.1317 0.87889,2.35225 1.02152,2.71235 0.23016,0.58111 -10e-4,0.6547 -2.06495,0.6547 -1.70232,0 -2.27884,-0.12513 -2.15264,-0.46764 0.0947,-0.25721 0.55264,-1.61862 1.01713,-3.02582 0.46851,-1.41936 0.73948,-2.12717 1.03029,-2.11026 z" /><path
       id="path2061-3"
       style="fill:#ffffff;fill-opacity:1;stroke-width:0.516908"
       d="m 137.09513,79.655069 c -0.58332,-0.07355 -1.35185,0.457093 -2.5423,1.435182 -2.39771,1.970063 -2.39733,1.970671 -1.47488,5.41008 7.71061,28.749919 -32.1107,40.866389 -43.584741,13.261527 -0.141769,-0.34422 -5.990858,1.828632 -6.038079,2.242962 -0.508786,4.46333 9.75156,15.82162 17.0555,18.87998 21.56787,9.03102 44.60618,-12.8381 38.64884,-36.687156 -0.73393,-2.938266 -1.18193,-4.307587 -1.94931,-4.520101 -0.0371,-0.0106 -0.0762,-0.01758 -0.11496,-0.02258 z m -37.03459,-2.55506 c 0.002,0.0032 0.004,0.0065 0.006,0.0097 -2.9e-4,-0.0027 5e-5,-0.0057 -9.5e-4,-0.0081 -0.002,-5.89e-4 -0.004,-0.0023 -0.007,-0.0025 z" /><path
       id="path2061-3-9"
       style="fill:#ffffff;fill-opacity:1;stroke-width:0.503329"
       d="m 137.78011,60.367418 c -1.9315,7.06e-4 -5.59578,3.728449 -15.76746,14.557541 -15.93812,16.968191 -14.60745,16.346283 -20.96726,9.800501 -4.51611,-4.648177 -5.790439,-5.07094 -7.566978,-2.50818 -1.216775,1.755307 -0.809213,2.631714 3.396673,7.31167 2.83082,3.149899 3.150475,3.732973 3.479535,6.332398 0.42344,3.34537 1.44614,5.227762 3.60378,6.638162 4.16171,2.72046 9.5656,-1.0298 9.57111,-6.640742 0.002,-2.160368 0.16597,-2.367505 12.81183,-16.175475 13.66483,-14.920649 14.26208,-15.690165 13.44656,-17.323771 -0.61034,-1.222659 -1.12982,-1.992424 -2.00779,-1.992104 z m -8.25287,29.125403 c -0.0395,0.07206 -0.0762,0.145513 -0.11454,0.218045 l 0.1169,-0.183213 c -9e-4,-0.01122 0.002,-0.04451 -0.002,-0.03478 z m -22.61442,4.629318 c 0.79587,0.04887 1.55874,0.690951 1.67518,1.784369 0.0912,0.85591 -0.11882,1.69606 -0.48611,1.94565 -1.87773,1.27617 -3.85789,-0.62227 -2.81918,-2.70301 0.37169,-0.744622 1.01109,-1.064995 1.63011,-1.027009 z" /></g></svg>
